<svg width="458" height="352" viewBox="0 0 458 352" fill="none" xmlns="http://www.w3.org/2000/svg">
<path d="M33.44 332.8C29.1733 332.8 25.2 332.107 21.52 330.72C17.8933 329.28 14.72 327.28 12 324.72C9.33333 322.107 7.25333 319.04 5.76 315.52C4.26667 312 3.52 308.16 3.52 304C3.52 299.84 4.26667 296 5.76 292.48C7.25333 288.96 9.36 285.92 12.08 283.36C14.8 280.747 17.9733 278.747 21.6 277.36C25.2267 275.92 29.2 275.2 33.52 275.2C38.1067 275.2 42.2933 276 46.08 277.6C49.8667 279.147 53.0667 281.467 55.68 284.56L48.96 290.88C46.9333 288.693 44.6667 287.067 42.16 286C39.6533 284.88 36.9333 284.32 34 284.32C31.0667 284.32 28.3733 284.8 25.92 285.76C23.52 286.72 21.4133 288.08 19.6 289.84C17.84 291.6 16.4533 293.68 15.44 296.08C14.48 298.48 14 301.12 14 304C14 306.88 14.48 309.52 15.44 311.92C16.4533 314.32 17.84 316.4 19.6 318.16C21.4133 319.92 23.52 321.28 25.92 322.24C28.3733 323.2 31.0667 323.68 34 323.68C36.9333 323.68 39.6533 323.147 42.16 322.08C44.6667 320.96 46.9333 319.28 48.96 317.04L55.68 323.44C53.0667 326.48 49.8667 328.8 46.08 330.4C42.2933 332 38.08 332.8 33.44 332.8ZM82.2444 332.56C77.871 332.56 73.9777 331.627 70.5644 329.76C67.151 327.84 64.4577 325.227 62.4844 321.92C60.511 318.613 59.5244 314.853 59.5244 310.64C59.5244 306.373 60.511 302.613 62.4844 299.36C64.4577 296.053 67.151 293.467 70.5644 291.6C73.9777 289.733 77.871 288.8 82.2444 288.8C86.671 288.8 90.591 289.733 94.0044 291.6C97.471 293.467 100.164 296.027 102.084 299.28C104.058 302.533 105.044 306.32 105.044 310.64C105.044 314.853 104.058 318.613 102.084 321.92C100.164 325.227 97.471 327.84 94.0044 329.76C90.591 331.627 86.671 332.56 82.2444 332.56ZM82.2444 324C84.6977 324 86.8844 323.467 88.8044 322.4C90.7244 321.333 92.2177 319.787 93.2844 317.76C94.4044 315.733 94.9644 313.36 94.9644 310.64C94.9644 307.867 94.4044 305.493 93.2844 303.52C92.2177 301.493 90.7244 299.947 88.8044 298.88C86.8844 297.813 84.7244 297.28 82.3244 297.28C79.871 297.28 77.6844 297.813 75.7644 298.88C73.8977 299.947 72.4044 301.493 71.2844 303.52C70.1644 305.493 69.6044 307.867 69.6044 310.64C69.6044 313.36 70.1644 315.733 71.2844 317.76C72.4044 319.787 73.8977 321.333 75.7644 322.4C77.6844 323.467 79.8444 324 82.2444 324ZM138.847 288.8C142.26 288.8 145.3 289.467 147.967 290.8C150.687 292.133 152.82 294.187 154.367 296.96C155.914 299.68 156.687 303.2 156.687 307.52V332H146.687V308.8C146.687 305.013 145.78 302.187 143.967 300.32C142.207 298.453 139.727 297.52 136.527 297.52C134.18 297.52 132.1 298 130.287 298.96C128.474 299.92 127.06 301.36 126.047 303.28C125.087 305.147 124.607 307.52 124.607 310.4V332H114.607V289.28H124.127V300.8L122.447 297.28C123.94 294.56 126.1 292.48 128.927 291.04C131.807 289.547 135.114 288.8 138.847 288.8ZM170.733 332V286.88C170.733 282.4 172.039 278.827 174.653 276.16C177.319 273.44 181.106 272.08 186.013 272.08C187.773 272.08 189.426 272.267 190.973 272.64C192.573 273.013 193.906 273.6 194.973 274.4L192.253 281.92C191.506 281.333 190.653 280.907 189.693 280.64C188.733 280.32 187.746 280.16 186.733 280.16C184.653 280.16 183.079 280.747 182.013 281.92C180.946 283.04 180.413 284.747 180.413 287.04V291.84L180.733 296.32V332H170.733ZM163.693 297.6V289.6H192.173V297.6H163.693ZM198.982 332V289.28H208.502V301.04L207.382 297.6C208.662 294.72 210.662 292.533 213.382 291.04C216.155 289.547 219.595 288.8 223.702 288.8V298.32C223.275 298.213 222.875 298.16 222.502 298.16C222.129 298.107 221.755 298.08 221.382 298.08C217.595 298.08 214.582 299.2 212.342 301.44C210.102 303.627 208.982 306.907 208.982 311.28V332H198.982ZM250.994 332.56C246.621 332.56 242.728 331.627 239.314 329.76C235.901 327.84 233.208 325.227 231.234 321.92C229.261 318.613 228.274 314.853 228.274 310.64C228.274 306.373 229.261 302.613 231.234 299.36C233.208 296.053 235.901 293.467 239.314 291.6C242.728 289.733 246.621 288.8 250.994 288.8C255.421 288.8 259.341 289.733 262.754 291.6C266.221 293.467 268.914 296.027 270.834 299.28C272.808 302.533 273.794 306.32 273.794 310.64C273.794 314.853 272.808 318.613 270.834 321.92C268.914 325.227 266.221 327.84 262.754 329.76C259.341 331.627 255.421 332.56 250.994 332.56ZM250.994 324C253.448 324 255.634 323.467 257.554 322.4C259.474 321.333 260.968 319.787 262.034 317.76C263.154 315.733 263.714 313.36 263.714 310.64C263.714 307.867 263.154 305.493 262.034 303.52C260.968 301.493 259.474 299.947 257.554 298.88C255.634 297.813 253.474 297.28 251.074 297.28C248.621 297.28 246.434 297.813 244.514 298.88C242.648 299.947 241.154 301.493 240.034 303.52C238.914 305.493 238.354 307.867 238.354 310.64C238.354 313.36 238.914 315.733 240.034 317.76C241.154 319.787 242.648 321.333 244.514 322.4C246.434 323.467 248.594 324 250.994 324ZM307.597 288.8C311.01 288.8 314.05 289.467 316.717 290.8C319.437 292.133 321.57 294.187 323.117 296.96C324.664 299.68 325.437 303.2 325.437 307.52V332H315.437V308.8C315.437 305.013 314.53 302.187 312.717 300.32C310.957 298.453 308.477 297.52 305.277 297.52C302.93 297.52 300.85 298 299.037 298.96C297.224 299.92 295.81 301.36 294.797 303.28C293.837 305.147 293.357 307.52 293.357 310.4V332H283.357V289.28H292.877V300.8L291.197 297.28C292.69 294.56 294.85 292.48 297.677 291.04C300.557 289.547 303.864 288.8 307.597 288.8ZM354.203 332.56C349.509 332.56 345.883 331.36 343.322 328.96C340.763 326.507 339.483 322.907 339.483 318.16V279.84H349.483V317.92C349.483 319.947 349.989 321.52 351.003 322.64C352.069 323.76 353.536 324.32 355.403 324.32C357.643 324.32 359.509 323.733 361.003 322.56L363.803 329.68C362.629 330.64 361.189 331.36 359.483 331.84C357.776 332.32 356.016 332.56 354.203 332.56ZM332.443 297.6V289.6H360.923V297.6H332.443ZM381.709 332.8C378.135 332.8 374.829 332.107 371.789 330.72C368.802 329.333 366.349 327.333 364.429 324.72L370.349 317.6C371.895 319.733 373.575 321.333 375.389 322.4C377.255 323.467 379.282 324 381.469 324C387.282 324 390.189 320.56 390.189 313.68V284.72H370.269V276H400.589V313.12C400.589 319.733 398.962 324.667 395.709 327.92C392.509 331.173 387.842 332.8 381.709 332.8ZM432.536 332.8C428.163 332.8 423.976 332.187 419.976 330.96C415.976 329.68 412.803 328.053 410.456 326.08L414.056 318C416.296 319.76 419.07 321.227 422.376 322.4C425.683 323.573 429.07 324.16 432.536 324.16C435.47 324.16 437.843 323.84 439.656 323.2C441.47 322.56 442.803 321.707 443.656 320.64C444.51 319.52 444.936 318.267 444.936 316.88C444.936 315.173 444.323 313.813 443.096 312.8C441.87 311.733 440.27 310.907 438.296 310.32C436.376 309.68 434.216 309.093 431.816 308.56C429.47 308.027 427.096 307.413 424.696 306.72C422.35 305.973 420.19 305.04 418.216 303.92C416.296 302.747 414.723 301.2 413.496 299.28C412.27 297.36 411.656 294.907 411.656 291.92C411.656 288.88 412.456 286.107 414.056 283.6C415.71 281.04 418.19 279.013 421.496 277.52C424.856 275.973 429.096 275.2 434.216 275.2C437.576 275.2 440.91 275.627 444.216 276.48C447.523 277.333 450.403 278.56 452.856 280.16L449.576 288.24C447.07 286.747 444.483 285.653 441.816 284.96C439.15 284.213 436.59 283.84 434.136 283.84C431.256 283.84 428.91 284.187 427.096 284.88C425.336 285.573 424.03 286.48 423.176 287.6C422.376 288.72 421.976 290 421.976 291.44C421.976 293.147 422.563 294.533 423.736 295.6C424.963 296.613 426.536 297.413 428.456 298C430.43 298.587 432.616 299.173 435.016 299.76C437.416 300.293 439.79 300.907 442.136 301.6C444.536 302.293 446.696 303.2 448.616 304.32C450.59 305.44 452.163 306.96 453.336 308.88C454.563 310.8 455.176 313.227 455.176 316.16C455.176 319.147 454.35 321.92 452.696 324.48C451.096 326.987 448.616 329.013 445.256 330.56C441.896 332.053 437.656 332.8 432.536 332.8Z" fill="#ECEFF4"/>
<g clip-path="url(#clip0_8_80)">
<path d="M329 116C329 136.577 323.527 156.784 313.141 174.548C302.755 192.312 287.83 206.993 269.898 217.087C251.966 227.181 231.671 232.323 211.095 231.986C190.52 231.65 170.404 225.846 152.812 215.171L110.506 228.187L121.549 187.38C110.18 172.816 102.455 155.748 99.0149 137.596C95.5752 119.444 96.5212 100.733 101.774 83.0205C107.027 65.3079 116.435 49.1061 129.215 35.7637C141.995 22.4213 157.777 12.3242 175.248 6.31288C192.719 0.301565 211.372 -1.45009 229.657 1.20372C247.941 3.85752 265.328 10.84 280.368 21.57C295.409 32.3 307.669 46.4671 316.128 62.8922C324.587 79.3172 329 97.525 329 116V116Z" fill="#A64AC9"/>
</g>
<g opacity="0.6" clip-path="url(#clip1_8_80)">
<path d="M396.332 213.708L406.192 250.04L370.596 239.079C351.603 251.509 328.668 256.436 306.245 252.904C283.823 249.371 263.513 237.631 249.261 219.963C235.009 202.295 227.83 179.961 229.121 157.297C230.411 134.633 240.077 113.258 256.243 97.3218C272.408 81.3858 293.919 72.0267 316.597 71.0621C339.276 70.0975 361.503 77.5962 378.963 92.102C396.423 106.608 407.87 127.085 411.079 149.558C414.289 172.03 409.033 194.893 396.332 213.708V213.708Z" fill="#17E9E0"/>
</g>
<defs>
<clipPath id="clip0_8_80">
<rect width="232" height="232" fill="white" transform="translate(97)"/>
</clipPath>
<clipPath id="clip1_8_80">
<rect width="183" height="183" fill="white" transform="translate(229 71)"/>
</clipPath>
</defs>
</svg>
