<svg enable-background="new 0 0 430.624 430.624" viewBox="0 0 430.624 430.624" xmlns="http://www.w3.org/2000/svg"><g fill="none"><path d="m91.76 166.207 16.275 83.963h42.81l-13.795-83.963z"/><path d="m132.414 367.077c0 13.669 11.121 24.789 24.791 24.789 13.668 0 24.787-11.12 24.787-24.789s-11.119-24.789-24.787-24.789c-13.67.001-24.791 11.12-24.791 24.789z"/><path d="m305.695 367.077c0 13.669 11.123 24.789 24.793 24.789 13.668 0 24.789-11.12 24.789-24.789s-11.121-24.789-24.789-24.789c-13.67.001-24.793 11.12-24.793 24.789z"/><path d="m175.165 250.17h54.993v-83.963h-68.787z"/><path d="m334.261 250.17h41.379l16.658-83.963h-45.984z"/><path d="m254.158 250.17h55.857l12.053-83.963h-67.91z"/></g><path d="m87.109 142.208h309.951l6.949-35.02h-323.689z" fill="#73d0f4"/><path d="m427.898 87.573c-2.279-2.776-5.682-4.386-9.273-4.386h-342.957l-11.379-58.713c-1.094-5.642-6.035-9.717-11.781-9.717h-40.508c-6.629 0-12 5.373-12 12s5.371 12 12 12h30.609l51.674 270.404c1.01 5.738 5.994 9.922 11.818 9.922h42.388c-22.757 4.122-40.076 24.067-40.076 47.995 0 26.902 21.887 48.79 48.79 48.79 26.902 0 48.787-21.887 48.787-48.79 0-23.927-17.316-43.872-40.074-47.995h155.855c-22.758 4.122-40.078 24.067-40.078 47.995 0 26.902 21.889 48.79 48.793 48.79 26.902 0 48.789-21.887 48.789-48.79 0-23.927-17.318-43.872-40.074-47.995h36.541c6.627 0 12-5.373 12-12 0-6.628-5.373-12-12-12h-259.566l-3.676-20.913h272.992c5.729 0 10.656-4.047 11.772-9.665l33.131-166.982c.698-3.523-.218-7.174-2.497-9.95zm-72.621 279.504c0 13.669-11.121 24.789-24.789 24.789-13.67 0-24.793-11.12-24.793-24.789s11.123-24.789 24.793-24.789c13.668.001 24.789 11.12 24.789 24.789zm-173.285 0c0 13.669-11.119 24.789-24.787 24.789-13.67 0-24.791-11.12-24.791-24.789s11.121-24.789 24.791-24.789c13.667.001 24.787 11.12 24.787 24.789zm-73.957-116.907-16.275-83.963h45.29l13.795 83.963zm122.123 0h-54.992l-13.795-83.963h68.787zm79.857 0h-55.857v-83.963h67.91zm65.625 0h-41.379l12.053-83.963h45.984zm21.42-107.962h-309.951l-6.789-35.02h323.689z" fill="#3d6889"/></svg>