<svg height="32" viewBox="0 0 32 32" width="32" xmlns="http://www.w3.org/2000/svg"><path d="m18 10 4 4-8 8-4-4zm13.298-.703-2.297-2.297-1 1c-.512.512-1.219.828-2 .828-1.562 0-2.829-1.266-2.829-2.828 0-.781.317-1.489.829-2.001l1-1-2.297-2.297c-.936-.936-2.469-.936-3.405 0l-18.595 18.595c-.936.936-.936 2.469 0 3.405l2.297 2.297.999-.999c.512-.513 1.22-.83 2.001-.83 1.562 0 2.828 1.266 2.828 2.828 0 .781-.317 1.489-.829 2.001l-1 1 2.297 2.297c.936.936 2.469.936 3.405 0l18.595-18.595c.936-.937.936-2.469 0-3.406zm-17.298 16.703-8-8 12-12 8 8z" fill="#fff"/></svg>